<svg width="194" height="132" viewBox="0 0 194 132" fill="none" xmlns="http://www.w3.org/2000/svg">
<path d="M113.604 96.3207H58.2522V0H108.211C117.457 0 124.05 1.79799 127.988 5.39396C131.927 8.98993 133.896 14.2127 133.896 21.0621C133.896 27.9972 132.655 33.3484 130.172 37.1156C127.689 40.7972 124.307 43.2373 120.026 44.4359V45.3349C132.441 47.4754 138.648 55.9516 138.648 70.7636C138.648 78.4692 136.593 84.6766 132.483 89.3856C128.459 94.009 122.166 96.3207 113.604 96.3207ZM101.147 57.9208H89.0748V73.7174H100.89C105.257 73.7174 107.44 71.0632 107.44 65.7549C107.44 60.5322 105.342 57.9208 101.147 57.9208ZM98.8353 21.0621H89.0748V35.446H98.5784C102.517 35.446 104.486 33.0487 104.486 28.2541C104.486 23.4594 102.603 21.0621 98.8353 21.0621Z" fill="url(#paint0_linear_5_1667)"/>
<path d="M4.95707 118.34C6.40762 118.34 7.47976 118.611 8.1735 119.153C8.86723 119.696 9.2141 120.541 9.2141 121.689V121.953C9.2141 122.572 9.05013 123.139 8.72218 123.656C8.40684 124.161 7.84555 124.514 7.03829 124.716C7.896 124.842 8.57713 125.151 9.08166 125.643C9.5862 126.135 9.83847 126.866 9.83847 127.838V128.178C9.83847 129.326 9.4916 130.215 8.79786 130.846C8.11674 131.477 7.03829 131.792 5.56252 131.792H1.45685C0.901859 131.792 0.51715 131.691 0.302722 131.489C0.100907 131.287 0 130.922 0 130.392V119.74C0 119.21 0.100907 118.844 0.302722 118.642C0.51715 118.441 0.901859 118.34 1.45685 118.34H4.95707ZM4.40839 123.997C5.46792 123.997 6.21211 123.852 6.64097 123.562C7.08244 123.259 7.30317 122.735 7.30317 121.991V121.783C7.30317 121.102 7.06982 120.623 6.60313 120.345C6.14904 120.068 5.37962 119.929 4.29487 119.929H1.89201V123.997H4.40839ZM4.74895 130.203C5.27872 130.203 5.73911 130.171 6.13012 130.108C6.53375 130.045 6.86801 129.931 7.13289 129.767C7.39777 129.591 7.59328 129.364 7.71941 129.086C7.84555 128.809 7.90861 128.449 7.90861 128.008V127.724C7.90861 127.358 7.85185 127.043 7.73833 126.778C7.62481 126.501 7.4293 126.274 7.15181 126.097C6.88693 125.908 6.53375 125.769 6.09228 125.681C5.65081 125.592 5.10213 125.548 4.44623 125.548H1.89201V130.203H4.74895Z" fill="#6D6D6D"/>
<path d="M26.1172 118.132C27.9335 118.132 29.321 118.661 30.2796 119.721C31.2508 120.78 31.7365 122.414 31.7365 124.621V125.51C31.7365 127.718 31.2508 129.351 30.2796 130.411C29.321 131.47 27.9335 132 26.1172 132C24.3008 132 22.9071 131.47 21.9358 130.411C20.9772 129.351 20.4979 127.718 20.4979 125.51V124.621C20.4979 122.414 20.9772 120.78 21.9358 119.721C22.9071 118.661 24.3008 118.132 26.1172 118.132ZM26.1172 119.853C24.8684 119.853 23.935 120.238 23.317 121.007C22.7115 121.764 22.4088 123.019 22.4088 124.773V125.359C22.4088 127.112 22.7115 128.367 23.317 129.124C23.935 129.881 24.8684 130.259 26.1172 130.259C27.3659 130.259 28.293 129.881 28.8984 129.124C29.5165 128.367 29.8255 127.112 29.8255 125.359V124.773C29.8255 123.019 29.5165 121.764 28.8984 121.007C28.293 120.238 27.3659 119.853 26.1172 119.853Z" fill="#6D6D6D"/>
<path d="M47.7223 118.34C49.6396 118.34 51.0838 118.838 52.055 119.834C53.0389 120.831 53.5308 122.395 53.5308 124.527V125.605C53.5308 127.737 53.0263 129.301 52.0172 130.297C51.0207 131.294 49.5891 131.792 47.7223 131.792H44.6384C44.0834 131.792 43.6987 131.691 43.4842 131.489C43.2824 131.287 43.1815 130.922 43.1815 130.392V119.74C43.1815 119.21 43.2824 118.844 43.4842 118.642C43.6987 118.441 44.0834 118.34 44.6384 118.34H47.7223ZM47.4764 130.165C48.8891 130.165 49.9297 129.799 50.5982 129.067C51.2793 128.323 51.6199 127.125 51.6199 125.473V124.697C51.6199 123.864 51.5379 123.152 51.3739 122.559C51.2226 121.953 50.9829 121.462 50.655 121.083C50.327 120.692 49.8981 120.408 49.3684 120.232C48.8386 120.055 48.2079 119.967 47.4764 119.967H45.0735V130.165H47.4764Z" fill="#6D6D6D"/>
<path d="M73.2508 118.359C73.4778 118.46 73.6355 118.611 73.7238 118.813C73.8247 119.015 73.7931 119.254 73.6292 119.532L69.5992 126.4V131.092C69.5992 131.369 69.5046 131.571 69.3154 131.697C69.1262 131.823 68.9054 131.887 68.6532 131.887C68.4009 131.887 68.1802 131.823 67.991 131.697C67.8018 131.571 67.7072 131.369 67.7072 131.092V126.4L63.6772 119.551C63.5384 119.311 63.5006 119.09 63.5637 118.888C63.6393 118.674 63.797 118.504 64.0367 118.378C64.2511 118.251 64.4781 118.214 64.7178 118.264C64.9574 118.314 65.1466 118.466 65.2854 118.718L68.7099 124.659L72.021 118.737C72.1597 118.485 72.3363 118.333 72.5507 118.283C72.7778 118.22 73.0111 118.245 73.2508 118.359Z" fill="#6D6D6D"/>
<path d="M103.331 118.34C104.781 118.34 105.853 118.611 106.547 119.153C107.241 119.696 107.588 120.541 107.588 121.689V121.953C107.588 122.572 107.424 123.139 107.096 123.656C106.78 124.161 106.219 124.514 105.412 124.716C106.27 124.842 106.951 125.151 107.455 125.643C107.96 126.135 108.212 126.866 108.212 127.838V128.178C108.212 129.326 107.865 130.215 107.171 130.846C106.49 131.477 105.412 131.792 103.936 131.792H99.8304C99.2754 131.792 98.8907 131.691 98.6763 131.489C98.4745 131.287 98.3736 130.922 98.3736 130.392V119.74C98.3736 119.21 98.4745 118.844 98.6763 118.642C98.8907 118.441 99.2754 118.34 99.8304 118.34H103.331ZM102.782 123.997C103.841 123.997 104.586 123.852 105.015 123.562C105.456 123.259 105.677 122.735 105.677 121.991V121.783C105.677 121.102 105.443 120.623 104.977 120.345C104.523 120.068 103.753 119.929 102.668 119.929H100.266V123.997H102.782ZM103.123 130.203C103.652 130.203 104.113 130.171 104.504 130.108C104.907 130.045 105.242 129.931 105.506 129.767C105.771 129.591 105.967 129.364 106.093 129.086C106.219 128.809 106.282 128.449 106.282 128.008V127.724C106.282 127.358 106.225 127.043 106.112 126.778C105.998 126.501 105.803 126.274 105.525 126.097C105.261 125.908 104.907 125.769 104.466 125.681C104.024 125.592 103.476 125.548 102.82 125.548H100.266V130.203H103.123Z" fill="#6D6D6D"/>
<path d="M120.139 118.245C120.391 118.245 120.612 118.308 120.801 118.434C120.991 118.56 121.085 118.762 121.085 119.04V126.286C121.085 127.711 121.337 128.733 121.842 129.351C122.359 129.957 123.179 130.259 124.302 130.259C125.424 130.259 126.238 129.957 126.742 129.351C127.259 128.733 127.518 127.711 127.518 126.286V119.04C127.518 118.762 127.613 118.56 127.802 118.434C127.991 118.308 128.212 118.245 128.464 118.245C128.716 118.245 128.937 118.308 129.126 118.434C129.315 118.56 129.41 118.762 129.41 119.04V126.267C129.41 127.327 129.303 128.222 129.088 128.954C128.874 129.685 128.552 130.278 128.123 130.732C127.695 131.174 127.158 131.496 126.515 131.697C125.885 131.899 125.147 132 124.302 132C123.469 132 122.731 131.899 122.088 131.697C121.457 131.496 120.927 131.174 120.499 130.732C120.07 130.278 119.742 129.685 119.515 128.954C119.3 128.222 119.193 127.327 119.193 126.267V119.04C119.193 118.762 119.288 118.56 119.477 118.434C119.666 118.308 119.887 118.245 120.139 118.245Z" fill="#6D6D6D"/>
<path d="M145.726 118.34C147.644 118.34 149.088 118.838 150.059 119.834C151.043 120.831 151.535 122.395 151.535 124.527V125.605C151.535 127.737 151.03 129.301 150.021 130.297C149.025 131.294 147.593 131.792 145.726 131.792H142.642C142.087 131.792 141.703 131.691 141.488 131.489C141.286 131.287 141.186 130.922 141.186 130.392V119.74C141.186 119.21 141.286 118.844 141.488 118.642C141.703 118.441 142.087 118.34 142.642 118.34H145.726ZM145.48 130.165C146.893 130.165 147.934 129.799 148.602 129.067C149.283 128.323 149.624 127.125 149.624 125.473V124.697C149.624 123.864 149.542 123.152 149.378 122.559C149.227 121.953 148.987 121.462 148.659 121.083C148.331 120.692 147.902 120.408 147.372 120.232C146.843 120.055 146.212 119.967 145.48 119.967H143.078V130.165H145.48Z" fill="#6D6D6D"/>
<path d="M167.511 118.34C169.428 118.34 170.873 118.838 171.844 119.834C172.828 120.831 173.32 122.395 173.32 124.527V125.605C173.32 127.737 172.815 129.301 171.806 130.297C170.81 131.294 169.378 131.792 167.511 131.792H164.427C163.872 131.792 163.487 131.691 163.273 131.489C163.071 131.287 162.97 130.922 162.97 130.392V119.74C162.97 119.21 163.071 118.844 163.273 118.642C163.487 118.441 163.872 118.34 164.427 118.34H167.511ZM167.265 130.165C168.678 130.165 169.718 129.799 170.387 129.067C171.068 128.323 171.409 127.125 171.409 125.473V124.697C171.409 123.864 171.327 123.152 171.163 122.559C171.011 121.953 170.772 121.462 170.444 121.083C170.116 120.692 169.687 120.408 169.157 120.232C168.627 120.055 167.997 119.967 167.265 119.967H164.862V130.165H167.265Z" fill="#6D6D6D"/>
<path d="M193.04 118.359C193.267 118.46 193.424 118.611 193.513 118.813C193.613 119.015 193.582 119.254 193.418 119.532L189.388 126.4V131.092C189.388 131.369 189.293 131.571 189.104 131.697C188.915 131.823 188.694 131.887 188.442 131.887C188.19 131.887 187.969 131.823 187.78 131.697C187.591 131.571 187.496 131.369 187.496 131.092V126.4L183.466 119.551C183.327 119.311 183.289 119.09 183.352 118.888C183.428 118.674 183.586 118.504 183.825 118.378C184.04 118.251 184.267 118.214 184.507 118.264C184.746 118.314 184.935 118.466 185.074 118.718L188.499 124.659L191.81 118.737C191.949 118.485 192.125 118.333 192.34 118.283C192.567 118.22 192.8 118.245 193.04 118.359Z" fill="#6D6D6D"/>
<defs>
<linearGradient id="paint0_linear_5_1667" x1="96.4136" y1="34.4002" x2="96.4136" y2="96.3207" gradientUnits="userSpaceOnUse">
<stop stop-color="#70B4E0"/>
<stop offset="1" stop-color="#858FF1"/>
</linearGradient>
</defs>
</svg>
