<svg width="24" height="26" viewBox="0 0 24 26" fill="none" xmlns="http://www.w3.org/2000/svg">
<circle cx="12.4044" cy="13.4547" r="11.5987" fill="#858FF1"/>
<path d="M16.3977 8.608C16.6537 8.75733 16.819 8.94933 16.8937 9.184C16.9683 9.41867 16.915 9.66933 16.7337 9.936L13.8377 14.144L16.8137 18.496C16.995 18.752 17.059 19.008 17.0057 19.264C16.9523 19.5093 16.7923 19.712 16.5257 19.872C16.291 20.0107 16.0403 20.0587 15.7737 20.016C15.507 19.984 15.2937 19.8453 15.1337 19.6L12.4937 15.536L9.83766 19.568C9.68833 19.8027 9.48033 19.9467 9.21366 20C8.95766 20.064 8.71233 20.0267 8.47766 19.888C8.23233 19.7387 8.07233 19.5467 7.99766 19.312C7.93366 19.0667 7.987 18.8213 8.15766 18.576L11.2777 14.112L8.44566 10C8.26433 9.744 8.21633 9.488 8.30166 9.232C8.39766 8.96533 8.58433 8.75733 8.86166 8.608C9.11766 8.46933 9.379 8.432 9.64566 8.496C9.91233 8.54933 10.1257 8.704 10.2857 8.96L12.6537 12.736L15.0697 8.944C15.2297 8.69867 15.427 8.54933 15.6617 8.496C15.907 8.432 16.1523 8.46933 16.3977 8.608Z" fill="white"/>
</svg>